<?xml version="1.0" encoding="UTF-8" standalone="no"?>
<!-- Created with Inkscape (http://www.inkscape.org/) -->

<svg
   width="620"
   height="612"
   viewBox="0 0 164.04166 161.925"
   version="1.1"
   id="svg5"
   inkscape:version="1.1.2 (b8e25be833, 2022-02-05)"
   sodipodi:docname="logo.svg"
   xmlns:inkscape="http://www.inkscape.org/namespaces/inkscape"
   xmlns:sodipodi="http://sodipodi.sourceforge.net/DTD/sodipodi-0.dtd"
   xmlns="http://www.w3.org/2000/svg"
   xmlns:svg="http://www.w3.org/2000/svg">
  <sodipodi:namedview
     id="namedview7"
     pagecolor="#ffffff"
     bordercolor="#666666"
     borderopacity="1.0"
     inkscape:pageshadow="2"
     inkscape:pageopacity="0.0"
     inkscape:pagecheckerboard="0"
     inkscape:document-units="mm"
     showgrid="false"
     inkscape:zoom="0.42226431"
     inkscape:cx="187.08661"
     inkscape:cy="484.29383"
     inkscape:current-layer="layer1"
     units="px" />
  <defs
     id="defs2" />
  <g
     inkscape:label="Camada 1"
     inkscape:groupmode="layer"
     id="layer1">
    <g
       id="g972"
       transform="matrix(0.96939321,0,0,0.96939321,-19.765454,-5.3036415)">
      <path
         id="path853"
         style="color:#000000;fill:#000000;stroke-width:1;stroke-linecap:round;stroke-linejoin:round;-inkscape-stroke:none"
         d="m 128.23415,8.3398776 a 2.6460995,2.6460995 0 0 0 -0.74207,0.013435 h -5.2e-4 c -12.86745,2.0587924 -21.31937,11.8109584 -26.49967,20.7031304 -4.489709,7.706743 -6.665915,15.021163 -7.168033,16.839797 -2.282442,0.513972 -4.493369,1.183804 -6.593914,1.998329 -8.005704,3.104359 -14.576139,8.263131 -17.236157,15.05076 -2.233559,5.699429 -4.141615,9.538705 -5.842021,11.982214 -1.700406,2.44352 -3.063552,3.452035 -4.560446,4.008025 -2.993781,1.111969 -7.855711,0.02448 -16.009873,0.187584 a 2.6460995,2.6460995 0 0 0 -2.525427,2.056207 c -2.986842,13.07751 -1.920269,21.987151 2.058789,27.843781 3.979058,5.85662 10.581105,8.02319 17.025315,8.36124 3.807095,0.19972 7.676182,-0.18251 11.241691,-0.81804 l 3.910872,10.8965 a 2.6460995,2.6460995 0 0 0 2.48202,1.75183 l 86.781264,0.31471 a 2.6460995,2.6460995 0 0 0 2.53938,-3.41995 l -12.28142,-40.138634 8.75812,-6.103503 a 2.6458349,2.6458349 0 0 0 0.006,-0.0046 2.6458349,2.6458349 0 0 0 0.0129,-0.01034 2.6458349,2.6458349 0 0 0 0.47749,-0.439248 2.6458349,2.6458349 0 0 0 0.0341,-0.03928 2.6458349,2.6458349 0 0 0 0.34468,-0.544671 2.6458349,2.6458349 0 0 0 0.0129,-0.02067 l 5.95105,-12.84366 a 2.6460995,2.6460995 0 0 0 -2.03708,-3.734139 c -3.3e-4,-2.01e-4 0.003,2.12e-4 0.002,0 -0.009,-0.002 -0.0434,-0.006 -0.0935,-0.01757 -0.10033,-0.0226 -0.26898,-0.06755 -0.47439,-0.141076 -0.41082,-0.14715 -0.95451,-0.411977 -1.43557,-0.827857 -0.96213,-0.83176 -1.9987,-2.136005 -1.38699,-6.005833 a 2.6460995,2.6460995 0 0 0 0.0294,-0.525549 c -0.66733,-15.68227 -9.99954,-23.582921 -18.78903,-26.878981 -6.73838,-2.52689 -12.08408,-2.617087 -14.77739,-2.560566 -0.0187,-0.16728 -0.025,-0.161833 -0.045,-0.359151 -0.22604,-2.222701 -0.5376,-6.413127 -0.84956,-14.056508 a 2.6460995,2.6460995 0 0 0 -2.32028,-2.5176744 z m -2.77192,5.9355544 c 0.24173,4.860157 0.48843,9.309488 0.67799,11.173478 0.12196,1.199171 0.22522,1.9285 0.31058,2.41019 0.0854,0.4817 0.2558,1.006139 0.2558,1.006139 a 2.6460995,2.6460995 0 0 0 2.66392,1.656231 c 0,0 7.49641,-0.54555 14.99805,2.267561 7.4652,2.799456 14.70043,8.332105 15.3479,21.953183 -0.69863,5.040063 1.03379,8.63732 3.19515,10.505818 0.55946,0.48365 1.03927,0.619384 1.57614,0.914154 l -4.52944,9.773047 -9.75186,6.794936 a 2.6460995,2.6460995 0 0 0 -1.01544,2.945556 l 11.79307,38.546995 -81.336113,-0.293 -3.053559,-8.50439 c 5.893313,-1.51807 10.059334,-3.33933 10.059334,-3.33933 a 2.6458349,2.6458349 0 0 0 1.394745,-3.47266 2.6458349,2.6458349 0 0 0 -3.470589,-1.39475 c 0,0 -13.160277,5.45996 -24.160282,4.88291 -5.499999,-0.28852 -10.12018,-1.92127 -12.925824,-6.05079 -2.624312,-3.86262 -3.777946,-10.642211 -1.635043,-21.544941 6.206728,0.150551 10.931551,1.116706 15.578375,-0.609264 2.615052,-0.971301 4.952516,-2.918161 7.060552,-5.947441 2.108036,-3.029289 4.116808,-7.179739 6.425965,-13.072071 1.882701,-4.804129 7.178278,-9.318185 14.220319,-12.048876 7.042044,-2.73068 15.68745,-3.674229 23.7541,-1.918229 8.06667,1.756011 15.53481,6.107213 20.74241,14.093714 5.20759,7.986508 8.20355,19.768719 6.67556,36.576578 a 2.6460995,2.6460995 0 0 0 -0.006,0.0543 c -0.83005,11.89752 -11.6204,18.82196 -21.31808,14.74225 -4.84883,-2.03985 -9.72172,-6.97692 -12.92376,-16.378842 -3.20224,-9.401971 -4.63206,-23.213221 -2.4693,-42.369031 a 2.6458349,2.6458349 0 0 0 -2.33371,-2.925918 2.6458349,2.6458349 0 0 0 -2.925915,2.332156 c -2.223317,19.69226 -0.834599,34.234784 2.718695,44.668075 3.55329,10.4333 9.37324,16.81292 15.8812,19.55074 13.01123,5.47369 27.58934,-4.19826 28.64838,-19.23448 1.59622,-17.63302 -1.51614,-30.708011 -7.51375,-39.906092 -6.00233,-9.20533 -14.84569,-14.369671 -24.04918,-16.373159 -2.30071,-0.500833 -4.62508,-0.810718 -6.94273,-0.945164 h -5.1e-4 c -2.49909,-0.144909 -4.98987,-0.08334 -7.43469,0.159682 0.97355,-2.95927 2.86553,-7.992031 5.91953,-13.234334 4.32136,-7.417771 10.80886,-14.844485 19.89801,-17.444931 z m 15.60628,31.151586 a 5.0126579,5.0126579 0 0 0 -5.01261,5.012616 5.0126579,5.0126579 0 0 0 5.01261,5.013129 5.0126579,5.0126579 0 0 0 5.01262,-5.013129 5.0126579,5.0126579 0 0 0 -5.01262,-5.012616 z M 80.289798,75.816379 a 4.6993669,4.6993669 0 0 0 -4.698937,4.699452 4.6993669,4.6993669 0 0 0 4.698937,4.699455 4.6993669,4.6993669 0 0 0 4.699455,-4.699455 4.6993669,4.6993669 0 0 0 -4.699455,-4.699452 z" />
      <text
         xml:space="preserve"
         style="font-size:42.7279px;line-height:1.25;font-family:Arial;-inkscape-font-specification:Arial;stroke-width:0.445081"
         x="21.872883"
         y="168.58006"
         id="text2399"><tspan
           sodipodi:role="line"
           id="tspan2397"
           style="font-style:normal;font-variant:normal;font-weight:normal;font-stretch:normal;font-size:42.7279px;font-family:'Milky Honey';-inkscape-font-specification:'Milky Honey';stroke-width:0.445081"
           x="21.872883"
           y="168.58006">Club Pet</tspan></text>
    </g>
  </g>
</svg>
