<?xml version="1.0" encoding="UTF-8" standalone="no"?>
<!-- Created with Inkscape (http://www.inkscape.org/) -->

<svg
   width="512"
   height="512"
   viewBox="0 0 135.46666 135.46667"
   version="1.1"
   id="svg890"
   inkscape:version="1.1.2 (b8e25be833, 2022-02-05)"
   sodipodi:docname="logo v2.svg"
   xmlns:inkscape="http://www.inkscape.org/namespaces/inkscape"
   xmlns:sodipodi="http://sodipodi.sourceforge.net/DTD/sodipodi-0.dtd"
   xmlns="http://www.w3.org/2000/svg"
   xmlns:svg="http://www.w3.org/2000/svg">
  <sodipodi:namedview
     id="namedview892"
     pagecolor="#ffffff"
     bordercolor="#666666"
     borderopacity="1.0"
     inkscape:pageshadow="2"
     inkscape:pageopacity="0.0"
     inkscape:pagecheckerboard="0"
     inkscape:document-units="mm"
     showgrid="false"
     units="px"
     inkscape:zoom="0.29858596"
     inkscape:cx="298.07162"
     inkscape:cy="624.61075"
     inkscape:current-layer="layer1" />
  <defs
     id="defs887" />
  <g
     inkscape:label="Camada 1"
     inkscape:groupmode="layer"
     id="layer1">
    <path
       id="path853"
       style="color:#ffc107;fill:#ffc107;stroke-width:1;stroke-linecap:round;stroke-linejoin:round;-inkscape-stroke:none"
       d="m 90.967485,7.1485322 a 2.6460995,2.6460995 0 0 0 -0.74207,0.0134 h -5.2e-4 c -12.86745,2.05879 -21.31937,11.8109598 -26.49967,20.7031298 -4.48971,7.70675 -6.665914,15.02117 -7.168032,16.8398 -2.282442,0.51397 -4.493369,1.1838 -6.593914,1.99833 -8.005704,3.10436 -14.576139,8.26313 -17.236157,15.05076 -2.233559,5.69943 -4.141615,9.538695 -5.842021,11.982205 -1.700406,2.44352 -3.063552,3.45204 -4.560446,4.00803 -2.993781,1.11197 -7.855711,0.0245 -16.0098732,0.18758 a 2.6460995,2.6460995 0 0 0 -2.525427,2.05621 c -2.98684201,13.07751 -1.920269,21.987153 2.058789,27.843783 3.979058,5.85662 10.5811052,8.02319 17.0253152,8.36124 3.807095,0.19972 7.676182,-0.18251 11.241691,-0.81804 l 3.910872,10.8965 a 2.6460995,2.6460995 0 0 0 2.48202,1.75183 L 127.2893,128.338 a 2.6460995,2.6460995 0 0 0 2.53938,-3.41995 l -12.28142,-40.138633 8.75812,-6.10351 a 2.6458349,2.6458349 0 0 0 0.006,-0.005 2.6458349,2.6458349 0 0 0 0.0129,-0.0103 2.6458349,2.6458349 0 0 0 0.47749,-0.43925 2.6458349,2.6458349 0 0 0 0.0341,-0.0393 2.6458349,2.6458349 0 0 0 0.34468,-0.54467 2.6458349,2.6458349 0 0 0 0.0129,-0.0207 l 5.95105,-12.843655 a 2.6460995,2.6460995 0 0 0 -2.03708,-3.73414 c -3.3e-4,-2e-4 0.003,2.2e-4 0.002,0 -0.009,-0.002 -0.0434,-0.006 -0.0935,-0.0176 -0.10033,-0.0226 -0.26898,-0.0675 -0.47439,-0.14107 -0.41082,-0.14715 -0.95451,-0.41198 -1.43557,-0.82786 -0.96213,-0.83176 -1.9987,-2.136 -1.38699,-6.00583 a 2.6460995,2.6460995 0 0 0 0.0294,-0.52555 c -0.66733,-15.68227 -9.99954,-23.58292 -18.78903,-26.87898 -6.73838,-2.52689 -12.084075,-2.61709 -14.777385,-2.56057 -0.0187,-0.16728 -0.025,-0.16183 -0.045,-0.35915 -0.22604,-2.2227 -0.5376,-6.41312 -0.84956,-14.0565098 a 2.6460995,2.6460995 0 0 0 -2.32028,-2.51767 z m -2.77192,5.9355498 c 0.24173,4.86016 0.48843,9.30949 0.67799,11.17348 0.12196,1.19917 0.22522,1.9285 0.31058,2.41019 0.0854,0.4817 0.2558,1.00614 0.2558,1.00614 a 2.6460995,2.6460995 0 0 0 2.66392,1.65623 c 0,0 7.49641,-0.54555 14.998045,2.26756 7.4652,2.79946 14.70043,8.33211 15.3479,21.95318 -0.69863,5.04007 1.03379,8.63732 3.19515,10.50582 0.55946,0.48365 1.03927,0.61939 1.57614,0.91416 l -4.52944,9.773035 -9.75186,6.79494 a 2.6460995,2.6460995 0 0 0 -1.01544,2.94555 l 11.79307,38.547003 -81.336107,-0.293 -3.053559,-8.50439 c 5.893313,-1.51807 10.059334,-3.33933 10.059334,-3.33933 a 2.6458349,2.6458349 0 0 0 1.394745,-3.47266 2.6458349,2.6458349 0 0 0 -3.470589,-1.39475 c 0,0 -13.160277,5.45996 -24.160282,4.88291 -5.499999,-0.28852 -10.12018,-1.92127 -12.925824,-6.05079 -2.6243122,-3.86262 -3.7779462,-10.642213 -1.6350432,-21.544943 6.2067282,0.15055 10.9315512,1.1167 15.5783752,-0.60927 2.615052,-0.9713 4.952516,-2.91816 7.060552,-5.94744 2.108036,-3.02929 4.116808,-7.17974 6.425965,-13.072065 1.882701,-4.80413 7.178278,-9.31818 14.220319,-12.04887 7.042039,-2.73068 15.687449,-3.67423 23.754099,-1.91823 8.06667,1.75601 15.53481,6.10721 20.74241,14.09371 5.207585,7.986505 8.203545,19.768715 6.675555,36.576578 a 2.6460995,2.6460995 0 0 0 -0.006,0.0543 c -0.83005,11.89752 -11.620395,18.82196 -21.318075,14.74225 -4.84883,-2.03985 -9.72172,-6.97692 -12.92376,-16.378843 -3.20224,-9.40197 -4.63206,-23.21322 -2.4693,-42.369025 a 2.6458349,2.6458349 0 0 0 -2.33371,-2.92592 2.6458349,2.6458349 0 0 0 -2.92591,2.33215 c -2.22332,19.692255 -0.8346,34.234785 2.71869,44.668078 3.55329,10.4333 9.37324,16.81292 15.8812,19.55074 13.01123,5.47369 27.589335,-4.19826 28.648375,-19.23448 1.59622,-17.633023 -1.51614,-30.708013 -7.51375,-39.906088 -6.002325,-9.20533 -14.845685,-14.36967 -24.049175,-16.37316 -2.30071,-0.50083 -4.62508,-0.81072 -6.94273,-0.94517 h -5.1e-4 c -2.49909,-0.1449 -4.98987,-0.0833 -7.43469,0.15969 0.97355,-2.95927 2.86553,-7.99203 5.91953,-13.23434 4.32136,-7.41777 10.80886,-14.84448 19.89801,-17.44493 z m 15.606275,31.15159 a 5.0126579,5.0126579 0 0 0 -5.012605,5.01261 5.0126579,5.0126579 0 0 0 5.012605,5.01313 5.0126579,5.0126579 0 0 0 5.01262,-5.01313 5.0126579,5.0126579 0 0 0 -5.01262,-5.01261 z M 43.023134,74.625027 a 4.6993669,4.6993669 0 0 0 -4.698937,4.69945 4.6993669,4.6993669 0 0 0 4.698937,4.69946 4.6993669,4.6993669 0 0 0 4.699455,-4.69946 4.6993669,4.6993669 0 0 0 -4.699455,-4.69945 z" />
  </g>
</svg>
